<svg width="101" height="104" viewBox="0 0 101 104" fill="none" xmlns="http://www.w3.org/2000/svg">
<path d="M11.8406 68.7697C9.54518 68.3766 7.28834 67.7514 5.09929 66.9022C5.12726 61.0238 5.93091 55.3154 7.7281 49.7595C8.15054 48.4503 9.2 46.7208 9.33394 45.3443C9.51499 43.334 7.74871 40.1092 7.18497 38.2337C3.75545 29.2075 0.105142 18.7711 0.00210877 8.90104C-0.0273292 6.01318 0.224366 1.98942 2.49403 0C4.18672 0.750845 5.86762 1.52896 7.54853 2.31029C8.54648 3.43335 7.59269 7.53412 7.52498 8.71493C8.89237 6.85066 10.6763 4.52592 13.1447 5.08585C15.6351 6.48325 18.0181 8.02666 20.3835 9.66151C17.1792 7.80686 14.7608 12.8702 14.0617 15.426C12.9386 19.5187 13.1682 24.0142 13.6525 28.1888C14.1515 32.4933 14.0779 36.7497 14.4326 41.059C14.9242 42.9842 16.271 45.7454 15.9619 47.7492C15.7411 49.1755 14.6372 50.7975 14.1809 52.1741C12.3911 57.4974 11.8008 63.1351 11.8406 68.7697Z" fill="black"/>
<path d="M32.5811 53.2121C30.934 57.7043 31.3049 63.0405 31.7671 67.7124C27.6458 68.6108 23.5716 69.3007 19.3605 69.4002C19.2133 63.326 19.674 57.0995 22.1674 51.5676C24.0043 47.4909 21.7965 43.5313 21.3461 39.1129C20.6101 31.8644 18.3493 24.5228 19.125 17.1603C19.3045 15.4549 19.8477 10.9578 22.0511 10.852C25.4365 13.3323 28.7056 16.0902 32.2249 18.3363L31.7759 17.932C30.9163 18.9706 30.5729 20.2423 30.7456 21.7472C29.1442 21.2659 27.6267 20.5151 26.1121 19.7931C25.7485 22.8414 26.0812 25.9362 26.4065 28.9701C27.5887 29.4504 28.7946 29.8586 30.0185 30.1926C31.012 36.5716 31.2622 43.0597 32.74 49.3295C31.5898 49.2896 30.4429 49.1717 29.3061 48.9766C29.8006 50.4638 28.4436 52.1019 27.8342 53.2506C29.4209 53.3164 30.9958 53.379 32.5811 53.2121Z" fill="black"/>
<path d="M33.6925 67.2536C33.1288 62.3795 32.4429 56.623 34.5153 52.0409C35.3072 50.2906 35.3984 50.7574 35.3823 48.8322C35.3616 46.724 34.3769 44.3608 34.1532 42.2206C33.5012 35.978 32.1014 29.668 31.9042 23.3709C31.8939 23.0163 31.9042 17.2341 32.9345 18.7182C34.3917 18.3797 35.8415 18.001 37.2972 17.6593C37.4012 17.4454 37.3821 17.3042 37.2398 17.2357C36.2978 22.2269 38.0346 28.4663 38.9339 33.2971C39.6876 37.3433 39.4432 41.3927 40.2969 45.4454C40.8665 48.1311 40.4529 49.0809 39.4064 51.5003C41.264 50.9772 43.1259 50.4735 44.9996 50.0018C44.3255 54.5229 45.1925 59.3986 45.9416 63.8346C41.8615 65.0026 37.7888 66.1754 33.6925 67.2536Z" fill="black"/>
<path d="M47.518 63.3806C46.835 59.1498 45.2821 53.0195 46.9204 48.7888C47.412 47.523 48.0979 46.9438 48.2981 45.556C48.5748 43.6982 47.7476 41.2146 47.674 39.299C47.5341 35.7357 47.674 32.482 47.2 28.9155C46.8482 26.2699 46.5229 23.6211 46.3051 20.9562C46.1947 19.6054 45.971 18.086 46.0976 16.7175C46.1344 16.3325 46.0299 15.3153 46.2448 16.1848C49.0973 15.9675 51.9602 15.9675 54.8127 16.1848C54.8789 15.9394 54.8333 15.7838 54.6758 15.7164C54.1886 20.937 55.6001 26.2442 55.6664 31.4392C55.712 35.0538 55.1645 38.5899 55.2248 42.2221C55.2704 44.9656 54.2592 45.9363 53.148 48.2562C55.0232 47.9353 56.9028 47.6658 58.7809 47.3866C58.2775 51.4569 59.2563 56.0502 59.8112 60.0274C55.7017 61.0917 51.6039 62.2094 47.518 63.3806Z" fill="black"/>
<path d="M68.5381 59.0953C65.3205 59.7868 62.9007 53.5426 61.9455 51.2034C61.183 49.3343 60.4868 47.9658 60.9505 45.9956C61.5478 45.1871 61.9975 44.2612 62.2752 43.2682C62.3488 41.6382 62.3488 39.9183 62.4813 38.3749C62.9228 33.2409 63.2761 27.9465 63.597 22.5446C63.6926 20.9274 63.6382 18.2208 64.7892 17.1731C65.7047 16.3421 66.3818 18.4984 67.2311 17.8807C68.703 16.8154 70.0512 14.6719 71.8617 14.8564C73.6721 15.0409 74.5111 17.9047 74.9365 19.7482C76.192 25.1757 75.0836 29.8637 74.6848 35.1982C74.5508 36.963 74.464 38.7471 73.8149 40.4028C73.4175 41.4168 72.5902 42.1516 72.1958 43.1302C71.4849 44.8629 71.8499 46.9663 71.8204 48.8899C71.763 51.5002 71.8337 58.3878 68.5381 59.0953ZM69.2181 27.1459C68.9238 27.2406 68.7766 28.1294 68.6294 30.0338C68.4513 32.1451 67.9199 34.3511 67.4901 36.4657C66.9337 39.2027 67.368 39.4594 67.4783 40.3017C67.5887 41.144 67.7727 41.4617 68.0671 41.3638C68.3615 41.2659 68.6721 40.783 68.9502 39.8124C69.2284 38.8417 68.9252 38.6701 69.4728 35.8801C69.8761 33.8329 70.3162 31.6205 70.0821 29.5573C69.8731 27.7732 69.5096 27.048 69.2137 27.1459H69.2181Z" fill="black"/>
<path d="M86.4231 55.6941C84.7334 55.7454 83.0613 55.8337 81.3745 55.9588C80.4457 52.6538 79.461 49.413 78.076 46.2941C77.5961 45.2144 76.1993 43.525 76.1007 42.3875C76.008 41.3238 76.7866 40.1606 77.0236 39.0183C77.3607 37.4139 77.1708 35.7582 77.2223 34.1202C77.3871 28.1583 78.5735 22.3008 76.5953 16.4833C76.1287 15.1084 74.3418 11.2515 72.7006 13.6885C74.8938 12.0713 77.1114 10.4974 79.3536 8.96687C82.9053 6.25067 84.3728 15.6442 84.6142 17.0368C84.6657 14.3575 85.3943 8.71017 83.2894 6.46886C84.9332 5.48983 86.625 4.60985 88.3572 3.83288C92.8936 2.95048 93.8665 11.2001 94.2286 14.165C94.4508 10.4525 95.1117 5.20622 92.7567 1.97182C94.1653 1.43756 96.0508 0.47815 97.639 0.399536C100.175 2.48522 100.73 6.42555 100.792 9.65354C100.924 16.8347 98.6119 23.8121 96.7573 30.5986C96.1418 32.903 95.3542 35.1486 94.4023 37.3129C93.6928 38.898 92.6272 40.236 92.6831 41.9142C92.7449 43.7367 93.9269 46.0936 94.3478 47.8616C95.1574 51.2644 95.5769 54.6529 95.805 58.1536C94.4029 57.1927 92.8775 56.4644 91.2789 55.9925C90.2324 51.4794 88.9121 47.0369 86.7764 42.9779C86.5262 42.4966 85.1308 40.7318 85.0101 40.1446C84.8261 39.2333 85.8638 36.9358 86.0596 36.1481C84.4302 39.214 83.6354 39.9232 84.3831 43.2073C85.3323 47.3119 86.014 51.4846 86.4231 55.6941Z" fill="black"/>
<path d="M32.9476 75.208C31.8746 78.6783 30.7589 82.1405 29.3252 85.4567C27.2401 84.9245 25.1262 84.5365 22.9961 84.2951C22.2233 84.2053 18.5289 83.8138 18.7379 84.9032C18.8056 85.2562 19.5504 85.7776 20.5645 86.2445C21.8637 86.8133 23.2132 87.2349 24.5916 87.5023C26.3476 87.8649 28.2714 88.1264 30.045 87.6627C33.1551 90.979 36.1578 94.3545 38.6895 98.2211C36.9467 98.428 35.1378 98.0446 33.4922 97.5007C31.2531 96.7435 29.0621 95.8265 26.9334 94.7556C22.1885 92.3992 17.5906 89.7056 13.1697 86.6921C10.301 84.7331 7.13492 82.4357 4.8785 79.9537C2.96503 77.852 4.77252 76.7626 6.44312 76.4241C10.3878 75.6219 14.8329 75.6219 19.0175 75.216C21.4477 74.9754 23.9263 74.7091 26.3123 74.5951C28.5025 74.4941 30.7604 74.555 32.9476 75.208Z" fill="black"/>
<path d="M48.6262 104C45.4455 103.037 42.3677 101.63 39.3018 100.31C39.7168 95.9958 40.7045 91.6463 41.2152 87.3145C41.9423 81.1377 42.6415 74.9609 43.4422 68.7905C50.0569 66.4209 56.6422 63.9598 63.3231 61.8163C66.0609 73.8491 67.8124 85.4727 65.7091 97.7542C61.8071 99.5687 57.8933 101.364 53.9059 102.943C54.215 101.082 54.3563 99.1853 54.6419 97.3146C53.0463 97.836 51.3448 98.5179 49.6492 98.5419C49.203 100.336 48.8613 102.159 48.6262 104ZM51.3169 89.7131C53.3304 89.4131 53.1391 89.2318 54.6095 88.7617C54.395 85.6121 53.9834 82.4822 53.3775 79.3938C52.6416 82.8255 51.9984 86.2717 51.3169 89.7131Z" fill="black"/>
<path d="M70.0334 77.8006C71.0373 71.704 71.5789 65.5818 71.8645 59.3953C80.7974 57.2567 92.658 53.4351 99.3757 62.2832C99.5023 66.2524 99.1446 69.8109 98.0216 73.5988C96.2347 72.7019 94.4007 72.4757 92.4622 72.3313C90.6636 78.7745 87.6977 83.6181 83.6397 88.6317C79.224 91.088 74.7376 93.3855 70.213 95.6027C73.5719 89.0825 76.0874 82.8287 77.5519 75.4871C75.0379 76.2369 72.5317 77.0081 70.0334 77.8006Z" fill="black"/>
</svg>
